<?xml version="1.0" encoding="UTF-8"?>
<svg width="1200pt" height="1200pt" version="1.1" viewBox="0 0 1200 1200" xmlns="http://www.w3.org/2000/svg">
 <g fill="#fff">
  <path d="m668.4 624 427.2-427.2c38.398-38.398 38.398-99.602 0-138-38.398-38.398-99.602-38.398-138 0l-357.6 358.8-358.8-358.8c-38.398-38.398-99.602-38.398-138 0-19.199 19.199-28.801 44.398-28.801 68.398s9.6016 49.199 28.801 68.398l428.4 428.4c37.199 37.199 99.598 37.199 136.8 0z"/>
  <path d="m668.4 1141.2 427.2-427.2c38.398-38.398 38.398-99.602 0-138-38.398-38.398-99.602-38.398-138 0l-357.6 360-358.8-360c-38.398-38.398-99.602-38.398-138 0-19.199 19.199-28.801 44.398-28.801 68.398 0 25.199 9.6016 49.199 28.801 68.398l427.2 427.2c38.402 39.605 100.8 39.605 138 1.2031z"/>
 </g>
</svg>
